<svg width="122" height="44" viewBox="0 0 122 44" fill="none" xmlns="http://www.w3.org/2000/svg">
<path d="M10 11.5C10 10.6716 10.6716 10 11.5 10H18.5C19.3284 10 20 10.6716 20 11.5V18H11.5C10.6716 18 10 17.3284 10 16.5V11.5Z" fill="#F26207"/>
<path d="M20 18H28.5C29.3284 18 30 18.6716 30 19.5V24.5C30 25.3284 29.3284 26 28.5 26H20V18Z" fill="#F26207"/>
<path d="M10 27.5C10 26.6716 10.6716 26 11.5 26H20V32.5C20 33.3284 19.3284 34 18.5 34H11.5C10.6716 34 10 33.3284 10 32.5V27.5Z" fill="#F26207"/>
<path d="M46.9705 16.8551L46.3211 17.5045H45.6717L45.4696 16.6819C45.4263 16.4798 45.2387 16.35 45.0222 16.35H40.8659C40.6061 16.35 40.4041 16.552 40.4041 16.7829V18.2116C40.4041 18.457 40.6061 18.6446 40.8659 18.6446H43.3193V25.3409H40.4618C40.202 25.3409 40 25.543 40 25.7739V27.2026C40 27.448 40.202 27.6356 40.4618 27.6356H49.4528C49.7126 27.6356 49.9146 27.4335 49.9146 27.2026V25.7739C49.9146 25.5285 49.7126 25.3409 49.4528 25.3409H46.1479V20.6073C46.1479 19.2796 46.9272 18.5869 48.457 18.5869H50.9393C51.199 18.5869 51.4011 18.3848 51.4011 18.1539V16.5809C51.4011 16.3355 51.199 16.1479 50.9393 16.1479H49.4672C48.3848 16.1335 47.5334 16.3355 46.9705 16.8551Z" fill="#F5F9FC"/>
<path d="M58.184 16.1335C54.5472 16.1335 52.5989 18.0673 52.5989 21.9928C52.5989 25.9326 54.5328 27.8665 58.1118 27.8665C60.8827 27.8665 62.6723 26.7119 63.1485 24.7348C63.2207 24.4606 62.9898 24.2008 62.7011 24.2008H60.9693C60.7817 24.2008 60.6085 24.3163 60.5364 24.4895C60.2333 25.3409 59.3674 25.745 58.1984 25.745C56.38 25.745 55.5141 24.7492 55.3987 22.4257H63.2928C63.7258 18.0818 61.9218 16.1335 58.184 16.1335ZM55.4853 20.665C55.7595 18.9621 56.6109 18.1684 58.1696 18.1684C59.8292 18.1684 60.6085 19.0487 60.6518 20.665H55.4853Z" fill="#F5F9FC"/>
<path d="M72.2261 16.1335C71.2447 16.1335 70.5376 16.35 69.9892 16.8695L69.3109 17.5189H68.6903L68.4594 16.6819C68.4017 16.4943 68.2285 16.35 68.012 16.35H66.7132C66.4534 16.35 66.2513 16.552 66.2513 16.7829V31.561C66.2513 31.8064 66.4534 31.994 66.7132 31.994H68.6182C68.8779 31.994 69.08 31.7919 69.08 31.561V28.3572L68.8346 26.6398L69.4696 26.4955L70.1479 27.1449C70.6819 27.6356 71.3313 27.8809 72.2983 27.8809C75.098 27.8809 76.7865 25.9471 76.7865 22.0072C76.7721 18.0673 75.098 16.1335 72.2261 16.1335ZM71.288 25.5141C69.8593 25.5141 69.0655 24.7781 69.0655 23.3782V20.6073C69.0655 19.2074 69.8449 18.4714 71.288 18.4714C73.0343 18.4714 73.828 19.5682 73.828 21.9783C73.8136 24.4173 73.0343 25.5141 71.288 25.5141Z" fill="#F5F9FC"/>
<path d="M111.524 18.2116V16.7829C111.524 16.5376 111.322 16.35 111.062 16.35H106.054V13.5791C106.054 13.3337 105.852 13.1461 105.592 13.1461H103.687C103.428 13.1461 103.225 13.3481 103.225 13.5791V16.35H100.267C100.007 16.35 99.8052 16.552 99.8052 16.7829V18.2116C99.8052 18.457 100.007 18.6446 100.267 18.6446H103.225V22.8875C103.225 26.1347 104.755 27.6356 108.046 27.6356H110.73C110.99 27.6356 111.192 27.4335 111.192 27.2026V25.7739C111.192 25.5285 110.99 25.3409 110.73 25.3409H108.479C106.689 25.3409 106.054 24.6338 106.054 22.8731V18.659H111.062C111.322 18.6446 111.524 18.4426 111.524 18.2116Z" fill="#F5F9FC"/>
<path d="M87.899 25.3409H84.9549V12.4245C84.9549 12.1792 84.7529 11.9916 84.4931 11.9916H78.7204C78.4606 11.9916 78.2586 12.1936 78.2586 12.4245V13.8533C78.2586 14.0986 78.4606 14.2862 78.7204 14.2862H82.1263V25.3409H78.3019C78.0421 25.3409 77.84 25.543 77.84 25.7739V27.2026C77.84 27.448 78.0421 27.6356 78.3019 27.6356H87.899C88.1587 27.6356 88.3608 27.4335 88.3608 27.2026V25.7739C88.3608 25.5285 88.1587 25.3409 87.899 25.3409Z" fill="#F5F9FC"/>
<path d="M96.4714 11.9916H93.8737C93.6139 11.9916 93.4119 12.1936 93.4119 12.4245V14.2573C93.4119 14.5027 93.6139 14.6903 93.8737 14.6903H96.4714C96.7312 14.6903 96.9333 14.4883 96.9333 14.2573V12.4245C96.9188 12.1792 96.7168 11.9916 96.4714 11.9916Z" fill="#F5F9FC"/>
<path d="M96.8178 25.3409V16.7829C96.8178 16.5376 96.6158 16.35 96.356 16.35H90.54C90.2802 16.35 90.0782 16.552 90.0782 16.7829V18.2116C90.0782 18.457 90.2802 18.6446 90.54 18.6446H93.9892V25.3409H90.54C90.2802 25.3409 90.0782 25.543 90.0782 25.7739V27.2026C90.0782 27.448 90.2802 27.6356 90.54 27.6356H100.354C100.613 27.6356 100.815 27.4335 100.815 27.2026V25.7739C100.815 25.5285 100.613 25.3409 100.354 25.3409H96.8178Z" fill="#F5F9FC"/>
</svg>
